<?xml version="1.0" encoding="utf-8"?>
<!-- Generator: Adobe Illustrator 16.0.4, SVG Export Plug-In . SVG Version: 6.00 Build 0)  -->
<!DOCTYPE svg PUBLIC "-//W3C//DTD SVG 1.1//EN" "http://www.w3.org/Graphics/SVG/1.1/DTD/svg11.dtd">
<svg version="1.1" id="レイヤー_1" xmlns="http://www.w3.org/2000/svg" xmlns:xlink="http://www.w3.org/1999/xlink" x="0px"
	 y="0px" width="239.7px" height="39px" viewBox="0 0 239.7 39" enable-background="new 0 0 239.7 39" xml:space="preserve">
<g>
	<path fill="none" stroke="#000000" d="M62.5,6v24h-7.1V6H62.5z"/>
	<path fill="none" stroke="#000000" d="M93.1,22.3h-10c-0.2-0.5-0.2-1-0.2-1.4c0-0.6,0.1-1.2,0.3-1.7h3.3c-0.2-1.3-1-2-2.2-2
		c-0.8,0-1.5,0.3-2,1s-0.8,1.6-0.8,2.7c0,1.1,0.2,2.1,0.7,2.8s1.2,1.1,2,1.1c0.7,0,1.3-0.3,1.9-1l3.7,4.5c-1.7,1.4-3.7,2.1-5.8,2.1
		c-2.6,0-4.8-0.9-6.6-2.6s-2.7-3.9-2.7-6.5c0-2.6,0.9-4.7,2.7-6.5s4-2.7,6.6-2.7c2.5,0,4.7,0.9,6.4,2.6s2.6,3.9,2.6,6.4
		C93.1,21.3,93.1,21.7,93.1,22.3z"/>
	<path fill="none" stroke="#000000" d="M105.5,23.4v6.8c-0.5,0.1-1,0.1-1.5,0.1c-2.6,0-4.8-0.9-6.6-2.6s-2.6-3.9-2.6-6.5
		c0-2.5,0.9-4.7,2.7-6.5s3.9-2.7,6.5-2.7c2.8,0,5.1,0.8,6.7,2.5s2.5,3.9,2.5,6.8V30h-6.6v-8.1c0-0.9-0.2-1.7-0.7-2.2
		s-1.1-0.8-1.8-0.8c-0.7,0-1.3,0.3-1.8,0.8s-0.8,1.1-0.8,1.8c0,0.7,0.2,1.3,0.7,1.8s1,0.7,1.7,0.7C104.5,23.9,105,23.7,105.5,23.4z"
		/>
	<path fill="none" stroke="#000000" d="M122.8,6v6.7h3v6.9h-3c0,1.4,0.2,2.4,0.7,2.9s1.2,0.8,2.4,0.8v6.9c-0.3,0-0.6,0-0.8,0
		c-1.5,0-2.9-0.3-4.2-1s-2.4-1.6-3.2-2.8c-1-1.5-1.5-3.5-1.5-6V6H122.8z"/>
	<path fill="none" stroke="#000000" d="M162,30h-6.6v-9.5c0-0.7-0.1-1.2-0.2-1.5s-0.4-0.4-0.8-0.4c-0.7,0-1.1,0.7-1.1,2V30h-6.6
		v-9.5c0-0.7-0.1-1.2-0.2-1.5s-0.4-0.4-0.8-0.4c-0.7,0-1.1,0.7-1.1,2V30H138V19.2c0-2,0.7-3.6,2-5s2.9-2.1,4.8-2.1
		c1.9,0,3.7,0.8,5.2,2.5c1.7-1.6,3.4-2.5,5.2-2.5c2.2,0,3.9,0.8,5.3,2.4c1,1.2,1.6,3.1,1.6,5.4V30z"/>
	<path fill="none" stroke="#000000" d="M183.1,22.3h-10c-0.2-0.5-0.2-1-0.2-1.4c0-0.6,0.1-1.2,0.3-1.7h3.3c-0.2-1.3-1-2-2.2-2
		c-0.8,0-1.5,0.3-2,1s-0.8,1.6-0.8,2.7c0,1.1,0.2,2.1,0.7,2.8s1.2,1.1,2,1.1c0.7,0,1.3-0.3,1.9-1l3.7,4.5c-1.7,1.4-3.7,2.1-5.8,2.1
		c-2.6,0-4.8-0.9-6.6-2.6s-2.7-3.9-2.7-6.5c0-2.6,0.9-4.7,2.7-6.5s4-2.7,6.6-2.7c2.5,0,4.7,0.9,6.4,2.6s2.6,3.9,2.6,6.4
		C183.2,21.3,183.2,21.7,183.1,22.3z"/>
	<path fill="none" stroke="#000000" d="M195.6,23.4v6.8c-0.5,0.1-1,0.1-1.5,0.1c-2.6,0-4.8-0.9-6.6-2.6s-2.6-3.9-2.6-6.5
		c0-2.5,0.9-4.7,2.7-6.5s3.9-2.7,6.5-2.7c2.8,0,5.1,0.8,6.7,2.5s2.5,3.9,2.5,6.8V30h-6.6v-8.1c0-0.9-0.2-1.7-0.7-2.2
		s-1.1-0.8-1.8-0.8c-0.7,0-1.3,0.3-1.8,0.8s-0.8,1.1-0.8,1.8c0,0.7,0.2,1.3,0.7,1.8s1,0.7,1.7,0.7C194.5,23.9,195.1,23.7,195.6,23.4
		z"/>
	<path fill="none" stroke="#000000" d="M212.9,6v6.7h3v6.9h-3c0,1.4,0.2,2.4,0.7,2.9s1.2,0.8,2.4,0.8v6.9c-0.3,0-0.6,0-0.8,0
		c-1.5,0-2.9-0.3-4.2-1s-2.4-1.6-3.2-2.8c-1-1.5-1.5-3.5-1.5-6V6H212.9z"/>
	<path fill="none" stroke="#000000" d="M232.9,22.1c1.1,0,2.1,0.4,3,1.2s1.2,1.8,1.2,3s-0.4,2.1-1.2,2.9s-1.8,1.2-3,1.2
		c-1.2,0-2.2-0.4-3-1.2s-1.2-1.8-1.2-3c0-1.2,0.4-2.2,1.2-3S231.8,22.1,232.9,22.1z"/>
</g>
<ellipse fill="#FFFFFF" stroke="#000000" stroke-miterlimit="10" cx="19.3" cy="21.2" rx="18.8" ry="13.4"/>
<ellipse cx="19.3" cy="23.4" rx="6.9" ry="4.3"/>
<ellipse fill="#FFFFFF" cx="16.9" cy="23.2" rx="0.6" ry="2.1"/>
<ellipse fill="#FFFFFF" cx="20.9" cy="23.2" rx="0.6" ry="2.1"/>
<circle fill="#232020" cx="16.2" cy="17.1" r="0.7"/>
<circle fill="#232020" cx="21.7" cy="16.9" r="0.8"/>
<ellipse fill="#232020" cx="11.2" cy="7" rx="1.3" ry="1.7"/>
<ellipse fill="#232020" cx="26.5" cy="7" rx="0.9" ry="1.7"/>
</svg>
