<svg xmlns="http://www.w3.org/2000/svg" width="239.7" height="39" viewBox="0 0 239.7 39"><path d="M62.5 6v24h-7.1V6h7.1zm30.6 16.3h-10c-.2-.5-.2-1-.2-1.4 0-.6.1-1.2.3-1.7h3.3c-.2-1.3-1-2-2.2-2-.8 0-1.5.3-2 1s-.8 1.6-.8 2.7.2 2.1.7 2.8 1.2 1.1 2 1.1c.7 0 1.3-.3 1.9-1l3.7 4.5c-1.7 1.4-3.7 2.1-5.8 2.1-2.6 0-4.8-.9-6.6-2.6s-2.7-3.9-2.7-6.5.9-4.7 2.7-6.5 4-2.7 6.6-2.7c2.5 0 4.7.9 6.4 2.6s2.6 3.9 2.6 6.4c.1.2.1.6.1 1.2zm12.4 1.1v6.8c-.5.1-1 .1-1.5.1-2.6 0-4.8-.9-6.6-2.6s-2.6-3.9-2.6-6.5c0-2.5.9-4.7 2.7-6.5s3.9-2.7 6.5-2.7c2.8 0 5.1.8 6.7 2.5s2.5 3.9 2.5 6.8V30h-6.6v-8.1c0-.9-.2-1.7-.7-2.2s-1.1-.8-1.8-.8-1.3.3-1.8.8-.8 1.1-.8 1.8.2 1.3.7 1.8 1 .7 1.7.7c.6-.1 1.1-.3 1.6-.6zM122.8 6v6.7h3v6.9h-3c0 1.4.2 2.4.7 2.9s1.2.8 2.4.8v6.9h-.8c-1.5 0-2.9-.3-4.2-1s-2.4-1.6-3.2-2.8c-1-1.5-1.5-3.5-1.5-6V6h6.6zM162 30h-6.6v-9.5c0-.7-.1-1.2-.2-1.5s-.4-.4-.8-.4c-.7 0-1.1.7-1.1 2V30h-6.6v-9.5c0-.7-.1-1.2-.2-1.5s-.4-.4-.8-.4c-.7 0-1.1.7-1.1 2V30H138V19.2c0-2 .7-3.6 2-5s2.9-2.1 4.8-2.1 3.7.8 5.2 2.5c1.7-1.6 3.4-2.5 5.2-2.5 2.2 0 3.9.8 5.3 2.4 1 1.2 1.6 3.1 1.6 5.4V30zm21.1-7.7h-10c-.2-.5-.2-1-.2-1.4 0-.6.1-1.2.3-1.7h3.3c-.2-1.3-1-2-2.2-2-.8 0-1.5.3-2 1s-.8 1.6-.8 2.7.2 2.1.7 2.8 1.2 1.1 2 1.1c.7 0 1.3-.3 1.9-1l3.7 4.5c-1.7 1.4-3.7 2.1-5.8 2.1-2.6 0-4.8-.9-6.6-2.6s-2.7-3.9-2.7-6.5.9-4.7 2.7-6.5 4-2.7 6.6-2.7c2.5 0 4.7.9 6.4 2.6s2.6 3.9 2.6 6.4c.2.2.2.6.1 1.2zm12.5 1.1v6.8c-.5.1-1 .1-1.5.1-2.6 0-4.8-.9-6.6-2.6s-2.6-3.9-2.6-6.5c0-2.5.9-4.7 2.7-6.5s3.9-2.7 6.5-2.7c2.8 0 5.1.8 6.7 2.5s2.5 3.9 2.5 6.8V30h-6.6v-8.1c0-.9-.2-1.7-.7-2.2s-1.1-.8-1.8-.8-1.3.3-1.8.8-.8 1.1-.8 1.8.2 1.3.7 1.8 1 .7 1.7.7c.5-.1 1.1-.3 1.6-.6zM212.9 6v6.7h3v6.9h-3c0 1.4.2 2.4.7 2.9s1.2.8 2.4.8v6.9h-.8c-1.5 0-2.9-.3-4.2-1s-2.4-1.6-3.2-2.8c-1-1.5-1.5-3.5-1.5-6V6h6.6zm20 16.1c1.1 0 2.1.4 3 1.2s1.2 1.8 1.2 3-.4 2.1-1.2 2.9-1.8 1.2-3 1.2-2.2-.4-3-1.2-1.2-1.8-1.2-3 .4-2.2 1.2-3 1.9-1.1 3-1.1z" fill="none" stroke="#000"/><ellipse fill="#FFF" stroke="#000" stroke-miterlimit="10" cx="19.3" cy="21.2" rx="18.8" ry="13.4"/><ellipse cx="19.3" cy="23.4" rx="6.9" ry="4.3"/><ellipse fill="#FFF" cx="16.9" cy="23.2" rx=".6" ry="2.1"/><ellipse fill="#FFF" cx="20.9" cy="23.2" rx=".6" ry="2.1"/><circle fill="#232020" cx="16.2" cy="17.1" r=".7"/><circle fill="#232020" cx="21.7" cy="16.9" r=".8"/><ellipse fill="#232020" cx="11.2" cy="7" rx="1.3" ry="1.7"/><ellipse fill="#232020" cx="26.5" cy="7" rx=".9" ry="1.7"/></svg>